# AST/ASF file generated using VICON BodyLanguage
# -----------------------------------------------
:version 1.10
:name VICON
:units
  mass 1.0
  length 0.45
  angle deg
:documentation
   .ast/.asf automatically generated from VICON data using
   VICON BodyBuilder and BodyLanguage model FoxedUp or BRILLIANT.MOD
:root
   order TX TY TZ RX RY RZ
   axis XYZ
   position 0 0 0  
   orientation 0 0 0 
:bonedata
  begin
     id 1 
     name lhipjoint
     direction 0.756833 -0.6125 0.228138 
     length 2.53827 
     axis 0 0 0  XYZ
  end
  begin
     id 2 
     name lfemur
     direction 0.34202 -0.939693 0  
     length 6.51821  
     axis 0 0 20  XYZ
    dof rx ry rz
    limits (-160.0 20.0)
           (-70.0 70.0)
           (-60.0 70.0)
  end
  begin
     id 3 
     name ltibia
     direction 0.34202 -0.939693 0   
     length 6.99902   
     axis 0 0 20   XYZ
    dof rx
    limits (-10.0 170.0)
  end
  begin
     id 4 
     name lfoot
     direction 0.0951515 -0.261427 0.960522   
     length 1.92102   
     axis -90 7.62852e-016 20   XYZ
    dof rx rz
    limits (-45.0 90.0)
           (-70.0 20.0)
  end
  begin
     id 5 
     name ltoes
     direction 1.53539e-011 -4.21781e-011 1   
     length 0.964376   
     axis -90 7.62852e-016 20   XYZ
    dof rx
    limits (-90.0 20.0)
  end
  begin
     id 6 
     name rhipjoint
     direction -0.752153 -0.617542 0.230017   
     length 2.51754  
     axis 0 0 0  XYZ 
  end
  begin
     id 7 
     name rfemur
     direction -0.34202 -0.939693 0   
     length 6.82377   
     axis 0 0 -20   XYZ
    dof rx ry rz
    limits (-160.0 20.0)
           (-70.0 70.0)
           (-70.0 60.0)
  end
  begin
     id 8 
     name rtibia
     direction -0.34202 -0.939693 0   
     length 6.98689   
     axis 0 0 -20   XYZ
    dof rx
    limits (-10.0 170.0)
 end
 begin
     id 9 
     name rfoot
     direction -0.0900426 -0.24739 0.964723   
     length 2.03215  
     axis -90 -7.62852e-016 -20   XYZ
    dof rx rz
    limits (-45.0 90.0)
           (-20.0 70.0)
  end
  begin
     id 10 
     name rtoes
     direction -1.53466e-011 -4.22206e-011 1   
     length 1.0197   
     axis -90 -7.62852e-016 -20   XYZ
    dof rx
    limits (-90.0 20.0)
  end
  begin
     id 11 
     name lowerback
     direction 0.0184183 0.995705 -0.0907278   
     length 2.019   
     axis 0 0 0   XYZ
    dof rx ry rz
    limits (-20.0 45.0)
           (-30.0 30.0)
           (-30.0 30.0)
  end
  begin
     id 12 
     name upperback
     direction 0.00281055 0.998777 0.0493607   
     length 1.99623   
     axis 0 0 0   XYZ
    dof rx ry rz
    limits (-20.0 45.0)
           (-30.0 30.0)
           (-30.0 30.0)
  end
  begin
     id 13 
     name thorax
     direction -0.00665507 0.995706 0.092331   
     length 2.02811   
     axis 0 0 0   XYZ
    dof rx ry rz
    limits (-20.0 45.0)
           (-30.0 30.0)
           (-30.0 30.0)
  end
  begin
     id 14 
     name lowerneck
     direction -0.0960965 0.994358 0.0449225   
     length 1.71265   
     axis 0 0 0   XYZ
    dof rx ry rz
    limits (-20.0 45.0)
           (-30.0 30.0)
           (-30.0 30.0)
  end
  begin
     id 15 
     name upperneck
     direction 0.13642 0.985357 -0.102278   
     length 1.73016   
     axis 0 0 0   XYZ
    dof rx ry rz
    limits (-20.0 45.0)
           (-30.0 30.0)
           (-30.0 30.0)
  end
  begin
     id 16
     name head
     direction 0.0556079 0.997632 -0.040479  
     length 1.74275  
     axis 0 0 0   XYZ
    dof rx ry rz
    limits (-20.0 45.0)
           (-30.0 30.0)
           (-30.0 30.0)
  end
  begin
     id 17 
     name lclavicle
     direction 0.90877 0.417247 -0.00652364  
     length 3.25514  
     axis 0 0 0   XYZ
    dof ry rz
    limits (-20.0 10.0)
           (0.0 20.0)
  end
  begin
     id 18 
     name lhumerus
     direction 1 -4.48949e-011 8.31417e-028   
     length 4.84834   
     axis 180 -30 -90   XYZ
    dof rx ry rz
    limits (-60.0 90.0)
           (-90.0 90.0)
           (-90.0 90.0)
  end
  begin
     id 19
     name lradius
     direction 1 -4.48984e-011 3.45616e-027   
     length 2.99713   
     axis 180 -30 -90   XYZ
    dof rx
    limits (-10.0 170.0)
  end
  begin
     id 20
     name lwrist
     direction 1 -4.4891e-011 4.0479e-027   
     length 1.49857   
     axis -1.61768e-015 90 90   XYZ
    dof ry
    limits (-180.0 0.0)
 end
  begin
     id 21 
     name lhand
     direction 1 -4.49025e-011 8.0958e-027   
     length 0.693987   
     axis -5.16581e-015 90 90   XYZ
    dof rx rz
    limits (-90.0 90.0)
           (-45.0 45.0)
  end
  begin
     id 22 
     name lfingers
     direction 1 -4.4888e-011 1.61916e-026   
     length 0.55951   
     axis -1.03316e-014 90 90   XYZ
    dof rx
    limits (0.0 90.0)
  end
  begin
     id 23
     name lthumb
     direction 0.707107 -6.3493e-011 0.707107   
     length 0.803348   
     axis -90 45 2.85299e-015   XYZ
    dof rx rz
    limits (-45.0 45.0)
           (-45.0 45.0)
  end
  begin
     id 24 
     name rclavicle
     direction -0.906655 0.41906 0.0486307   
     length 3.3311  
     axis 0 0 0   XYZ 
    dof ry rz
    limits (-10.0 20.0)
           (-20.0 0.0)
  end
  begin
     id 25 
     name rhumerus
     direction -1 -4.48959e-011 6.37764e-018  
     length 4.93457   
     axis 180 30 90   XYZ
    dof rx ry rz
    limits (-90.0 60.0)
           (-90.0 90.0)
           (-90.0 90.0)
  end
  begin
     id 26 
     name rradius
     direction -1 -4.48957e-011 2.20847e-027   
     length 3.3443   
     axis 180 30 90   XYZ
    dof rx
    limits (-10.0 170.0)
  end
  begin
     id 27 
     name rwrist
     direction -1 -4.49008e-011 4.0479e-027   
     length 1.67215   
     axis -1.61768e-015 -90 -90   XYZ
    dof ry
    limits (-180.0 0.0)
  end
  begin
     id 28
     name rhand
     direction -1 -4.49013e-011 8.0958e-027   
     length 0.677363   
     axis -5.16581e-015 -90 -90   XYZ
    dof rx rz
    limits (-90.0 90.0)
           (-45.0 45.0)
  end
  begin
     id 29
     name rfingers
     direction -1 -4.48832e-011 1.61916e-026   
     length 0.546107   
     axis -1.03316e-014 -90 -90   XYZ
    dof rx
    limits (0.0 90.0)
  end
  begin
     id 30
     name rthumb
     direction -0.707107 -6.34895e-011 0.707107   
     length 0.784104   
     axis -90 -45 -2.85299e-015   XYZ
    dof rx rz
    limits (-45.0 45.0)
           (-45.0 45.0)
  end
:hierarchy
  begin
    root lhipjoint rhipjoint lowerback
    lhipjoint lfemur
    lfemur ltibia
    ltibia lfoot
    lfoot ltoes
    rhipjoint rfemur
    rfemur rtibia
    rtibia rfoot
    rfoot rtoes
    lowerback upperback
    upperback thorax
    thorax lowerneck lclavicle rclavicle
    lowerneck upperneck
    upperneck head
    lclavicle lhumerus
    lhumerus lradius
    lradius lwrist
    lwrist lhand lthumb
    lhand lfingers
    rclavicle rhumerus
    rhumerus rradius
    rradius rwrist
    rwrist rhand rthumb
    rhand rfingers
  end

#!OML:ASF H:\Terrain\Patient Classification 1\junglegym\FridayTest\junglegym.ASF
:FULLY-SPECIFIED
:DEGREES
81
root 8.94252 15.8625 -26.6439 5.70689 -5.1699 -5.43085
lowerback 1.00051 1.8517 3.1759
upperback -3.30011 2.57617 0.156725
thorax -3.82896 1.18775 -1.72379
lowerneck -2.81718 -2.8172 -14.7893
upperneck 10.1089 -4.48987 16.1347
head 4.12032 -2.07409 7.33868
rclavicle -1.125e-014 3.97569e-015
rhumerus -26.3245 4.25997 -84.2133
rradius 39.7399
rwrist -1.91729
rhand -23.5883 33.4728
rfingers 7.12502
rthumb 2.87495 3.51239
lclavicle -1.125e-014 3.97569e-015
lhumerus -53.1173 14.7475 68.8567
lradius 18.3521
lwrist -38.368
lhand -1.82735 23.1303
lfingers 7.12502
lthumb 23.839 51.6711
rfemur 11.6364 -0.669772 28.1682
rtibia 27.8035
rfoot -4.75979 0.087746
rtoes -4.36962
lfemur -36.6669 -2.09953 -16.0775
ltibia 24.3604
lfoot 5.7808 9.90255
ltoes 7.48323
82
root 8.95976 15.8794 -26.419 5.53658 -5.02796 -4.72167
lowerback 1.07738 1.75189 2.41355
upperback -3.39431 2.41793 -0.00471078
thorax -4.00027 1.12658 -1.46326
lowerneck -2.57926 -2.79264 -14.6903
upperneck 10.1001 -4.4743 15.9707
head 4.06874 -2.07936 7.26898
rclavicle 1.1368e-014 4.77083e-015
rhumerus -27.0076 4.30492 -84.3699
rradius 39.7353
rwrist -2.13637
rhand -23.1118 32.9368
rfingers 7.12502
rthumb 3.3351 2.98319
lclavicle 1.1368e-014 4.77083e-015
lhumerus -53.1939 15.0937 68.5045
lradius 18.0699
lwrist -38.5092
lhand -2.32802 22.873
lfingers 7.12502
lthumb 23.3587 51.4757
rfemur 10.5369 -1.51383 26.9545
rtibia 30.8129
rfoot -2.97107 0.63076
rtoes -7.03619
lfemur -36.5991 -1.23177 -17.5941
ltibia 25.9705
lfoot 5.38337 8.20556
ltoes 3.96
83
root 8.97525 15.9057 -26.1974 5.26899 -4.88364 -4.3183
lowerback 1.20108 1.63925 1.97316
upperback -3.27999 2.25365 -0.0364313
thorax -3.97269 1.05943 -1.24498
lowerneck -3.05209 -2.84057 -14.7659
upperneck 10.5664 -4.50437 15.8087
head 4.29287 -2.08283 7.22935
rclavicle 3.54085e-015 -7.95139e-016
rhumerus -27.3094 4.27979 -84.4196
rradius 39.508
rwrist -2.2655
rhand -22.8794 32.8832
rfingers 7.12502
rthumb 3.55955 2.93318
lclavicle 3.54085e-015 -7.95139e-016
lhumerus -53.0927 15.3357 68.4827
lradius 18.0747
lwrist -38.4991
lhand -2.40148 22.2897
lfingers 7.12502
lthumb 23.2883 50.9012
rfemur 9.44537 -2.0513 26.1444
rtibia 33.9852
rfoot -1.00519 0.872993
rtoes -7.49554
lfemur -36.2425 -0.447573 -18.6451
ltibia 27.314
lfoot 4.51033 6.93138
ltoes 1.77614
84
root 8.99088 15.9331 -25.9789 5.12547 -4.70861 -4.19295
lowerback 1.29103 1.51193 1.90867
upperback -3.27474 2.08366 -0.0286314
thorax -4.02651 0.976251 -1.19621
lowerneck -3.23234 -2.73335 -15.0044
upperneck 10.7261 -4.34969 15.9659
head 4.35407 -2.00143 7.33498
rclavicle -2.62023e-014 -7.15625e-015
rhumerus -27.6811 4.13156 -84.5247
rradius 38.9579
rwrist -1.89238
rhand -22.9263 32.9894
rfingers 7.12502
rthumb 3.51425 3.03862
lclavicle -2.62023e-014 -7.15625e-015
lhumerus -53.1346 15.0761 68.7833
lradius 18.4048
lwrist -37.9876
lhand -2.00471 22.484
lfingers 7.12502
lthumb 23.6689 51.0469
rfemur 8.13242 -2.31508 25.7219
rtibia 37.2675
rfoot 1.46641 0.758281
rtoes -5.04208
lfemur -35.8286 0.342521 -19.3273
ltibia 28.3041
lfoot 3.51626 5.76266
ltoes 1.45461
85
root 9.00712 15.9577 -25.7645 5.11579 -4.42307 -4.05285
lowerback 1.34764 1.37059 1.82993
upperback -3.39105 1.8944 -0.0385637
thorax -4.18793 0.881711 -1.15745
lowerneck -3.0565 -2.64664 -15.079
upperneck 10.6288 -4.23882 15.9728
head 4.2779 -1.95703 7.35652
rclavicle -7.60351e-015 2.38542e-015
rhumerus -28.2216 4.03585 -84.6366
rradius 38.2406
rwrist -1.21119
rhand -23.4969 33.2396
rfingers 7.12502
rthumb 2.96327 3.28043
lclavicle -7.60351e-015 2.38542e-015
lhumerus -53.2228 15.0174 68.7735
lradius 18.6034
lwrist -38.2701
lhand -1.82983 22.5126
lfingers 7.12502
lthumb 23.8366 51.0537
rfemur 6.63862 -2.52943 25.3468
rtibia 40.5485
rfoot 4.14514 0.240442
rtoes -1.81503
lfemur -35.4048 1.04877 -20.0118
ltibia 28.9444
lfoot 2.72523 4.57891
ltoes 1.00408
86
root 9.02127 15.9949 -25.5553 4.92036 -4.21529 -3.49453
lowerback 1.53141 1.2738 1.27289
upperback -3.36341 1.74369 -0.15385
thorax -4.2802 0.822297 -0.96194
lowerneck -3.07208 -2.62101 -15.0223
upperneck 10.6428 -4.19008 15.8242
head 4.27331 -1.93662 7.29914
rclavicle -9.08197e-015 1.70955e-014
rhumerus -28.58 3.9157 -84.7159
rradius 37.6038
rwrist -0.916703
rhand -23.768 33.2934
rfingers 7.12502
rthumb 2.70146 3.33078
lclavicle -9.08197e-015 1.70955e-014
lhumerus -52.8336 15.3325 68.6729
lradius 18.4206
lwrist -38.7166
lhand -2.21326 21.9235
lfingers 7.12502
lthumb 23.4688 50.5121
rfemur 5.13056 -2.73484 24.5655
rtibia 43.7963
rfoot 7.06589 -0.578603
rtoes 0.334114
lfemur -34.5843 1.66012 -21.0442
ltibia 29.2895
lfoot 1.86937 3.68968
ltoes 0.313766
87
root 9.03746 16.0361 -25.3492 4.54328 -4.094 -2.71028
lowerback 1.85755 1.21197 0.474889
upperback -3.21937 1.62654 -0.312324
thorax -4.33517 0.787688 -0.678708
lowerneck -3.45715 -2.59241 -15.0175
upperneck 10.9068 -4.12452 15.8094
head 4.40758 -1.8886 7.29928
rclavicle -1.73067e-014 0
rhumerus -28.7982 3.78647 -84.7614
rradius 37.0062
rwrist -0.960349
rhand -23.4033 33.0716
rfingers 7.12502
rthumb 3.05365 3.11376
lclavicle -1.73067e-014 0
lhumerus -52.2105 15.6255 68.7637
lradius 18.2524
lwrist -38.3939
lhand -2.28745 21.8562
lfingers 7.12502
lthumb 23.3977 50.4539
rfemur 3.6549 -2.99825 23.5305
rtibia 47.0095
rfoot 10.4323 -1.53163
rtoes 4.1479
lfemur -33.3954 2.11923 -22.2201
ltibia 29.392
lfoot 0.974407 3.07645
ltoes -0.567626
88
root 9.05746 16.0672 -25.1487 4.29925 -3.96984 -2.28992
lowerback 2.12939 1.03662 0.0390927
upperback -3.03658 1.37669 -0.257848
thorax -4.31441 0.678849 -0.368102
lowerneck -4.31065 -2.52407 -15.4018
upperneck 11.3953 -3.95376 15.9892
head 4.68442 -1.77697 7.44359
rclavicle 2.9445e-015 -6.36111e-015
rhumerus -28.7736 4.13498 -84.7726
rradius 36.2786
rwrist -0.97006
rhand -23.1262 32.8805
rfingers 7.12502
rthumb 3.32122 2.92658
lclavicle 2.9445e-015 -6.36111e-015
lhumerus -51.7454 16.235 68.9223
lradius 18.3397
lwrist -37.9549
lhand -2.03608 22.2269
lfingers 7.12502
lthumb 23.6388 50.7936
rfemur 1.99816 -3.25523 22.9123
rtibia 50.1517
rfoot 13.6398 -2.84488
rtoes 9.78046
lfemur -32.2614 2.54579 -22.988
ltibia 29.2584
lfoot 0.290608 2.47101
ltoes -1.07805
89
root 9.0715 16.1002 -24.9528 4.26442 -4.06756 -2.1589
lowerback 2.29108 0.788758 -0.158143
upperback -2.88768 1.04572 -0.0265667
thorax -4.26113 0.524537 -0.00106545
lowerneck -5.36731 -2.3969 -16.0955
upperneck 11.9285 -3.62893 16.0994
head 4.98952 -1.60018 7.63367
rclavicle -1.14332e-014 3.97569e-016
rhumerus -28.5342 4.93002 -84.813
rradius 35.4281
rwrist -0.814811
rhand -22.9187 32.4329
rfingers 7.12502
rthumb 3.52165 2.48224
lclavicle -1.14332e-014 3.97569e-016
lhumerus -51.2993 16.8726 69.4262
lradius 18.5376
lwrist -37.4731
lhand -2.22339 22.4121
lfingers 7.12502
lthumb 23.4591 51.002
rfemur -0.0633188 -3.22933 22.7104
rtibia 53.2472
rfoot 15.8874 -4.63043
rtoes 14.2565
lfemur -31.2975 3.42525 -23.4547
ltibia 28.971
lfoot -0.309351 1.70781
ltoes -1.30078
90
root 9.08147 16.1415 -24.756 4.24593 -4.25307 -1.72091
lowerback 2.38495 0.969145 -0.442144
upperback -3.11898 1.25793 -0.409378
thorax -4.55327 0.632487 -0.254026
lowerneck -4.49672 -2.37946 -15.4402
upperneck 11.7152 -3.74743 15.915
head 4.77737 -1.67349 7.44433
rclavicle 1.24365e-014 -1.39149e-014
rhumerus -29.3271 3.96404 -85.087
rradius 34.5937
rwrist -0.128948
rhand -22.6432 31.6978
rfingers 7.12502
rthumb 3.78764 1.75168
lclavicle 1.24365e-014 -1.39149e-014
lhumerus -50.91 15.4756 69.9505
lradius 18.7588
lwrist -36.8981
lhand -2.40753 22.7875
lfingers 7.12502
lthumb 23.2825 51.3998
rfemur -2.18884 -3.27566 22.1777
rtibia 56.2702
rfoot 16.8119 -6.53285
rtoes 17.5652
lfemur -30.3127 4.02624 -24.1191
ltibia 28.7199
lfoot -1.18123 1.24903
ltoes -2.68799
